# xmcd
#
# Track frame offsets:
#	150
#	9875
#	20875
#	33775
#	44762
#	57175
#	73975
#	89462
#	104512
#	114012
#	121750
#
# Disc length: 1756 seconds
#
# Revision: 3670073
# Processed by: cddbd v1.5.2PL0 Copyright (c) Steve Scherf et al.
# Submitted via: EZCDAudioConverter 8.0.2.1
#
DISCID=8c06da0b
DTITLE=Various Artist - Country Gals
DYEAR=1900
DGENRE=Traditional Country
TTITLE0=Anne Murray -  Some Birds
TTITLE1=Dolly Parton  -  Honky Tonk Angels
TTITLE2=Lynn Anderson  -  Rose Garden
TTITLE3=Patsy Cline  -  I Cried All The Way To The Alter
TTITLE4=Lynn Anderson  - Stand By Your Man
TTITLE5=Lynn Anderson  - Blue Blue Bayou
TTITLE6=Anne Murray  -  There Goes My Everything
TTITLE7=Anne Murray  -  Both Sides Now
TTITLE8=Dolly Parton  - Girl Left Alone
TTITLE9=Dolly Parton  -  Puppy Love
TTITLE10=Patsy Cline  - 3 Cigarettes In An Ashtray
EXTD=
EXTT0=
EXTT1=
EXTT2=
EXTT3=
EXTT4=
EXTT5=
EXTT6=
EXTT7=
EXTT8=
EXTT9=
EXTT10=
PLAYORDER=
